<svg width="487" height="88" viewBox="0 0 487 88" fill="none" xmlns="http://www.w3.org/2000/svg">
<circle cx="44" cy="44" r="44" fill="#C9A949"/>
<path d="M54 24H48C45.3478 24 42.8043 25.0536 40.9289 26.9289C39.0536 28.8043 38 31.3478 38 34V40H32V48H38V64H46V48H52L54 40H46V34C46 33.4696 46.2107 32.9609 46.5858 32.5858C46.9609 32.2107 47.4696 32 48 32H54V24Z" stroke="white" stroke-width="3" stroke-linecap="round" stroke-linejoin="round"/>
<circle cx="177" cy="44" r="44" fill="#C9A949"/>
<path d="M168.6 24H185.4C191.8 24 197 29.2 197 35.6V52.4C197 55.4765 195.778 58.427 193.602 60.6024C191.427 62.7779 188.477 64 185.4 64H168.6C162.2 64 157 58.8 157 52.4V35.6C157 32.5235 158.222 29.573 160.398 27.3976C162.573 25.2221 165.523 24 168.6 24ZM168.2 28C166.29 28 164.459 28.7586 163.109 30.1088C161.759 31.4591 161 33.2904 161 35.2V52.8C161 56.78 164.22 60 168.2 60H185.8C187.71 60 189.541 59.2414 190.891 57.8912C192.241 56.5409 193 54.7096 193 52.8V35.2C193 31.22 189.78 28 185.8 28H168.2ZM187.5 31C188.163 31 188.799 31.2634 189.268 31.7322C189.737 32.2011 190 32.837 190 33.5C190 34.163 189.737 34.7989 189.268 35.2678C188.799 35.7366 188.163 36 187.5 36C186.837 36 186.201 35.7366 185.732 35.2678C185.263 34.7989 185 34.163 185 33.5C185 32.837 185.263 32.2011 185.732 31.7322C186.201 31.2634 186.837 31 187.5 31ZM177 34C179.652 34 182.196 35.0536 184.071 36.9289C185.946 38.8043 187 41.3478 187 44C187 46.6522 185.946 49.1957 184.071 51.0711C182.196 52.9464 179.652 54 177 54C174.348 54 171.804 52.9464 169.929 51.0711C168.054 49.1957 167 46.6522 167 44C167 41.3478 168.054 38.8043 169.929 36.9289C171.804 35.0536 174.348 34 177 34ZM177 38C175.409 38 173.883 38.6321 172.757 39.7574C171.632 40.8826 171 42.4087 171 44C171 45.5913 171.632 47.1174 172.757 48.2426C173.883 49.3679 175.409 50 177 50C178.591 50 180.117 49.3679 181.243 48.2426C182.368 47.1174 183 45.5913 183 44C183 42.4087 182.368 40.8826 181.243 39.7574C180.117 38.6321 178.591 38 177 38Z" fill="white"/>
<circle cx="310" cy="44" r="44" fill="#C9A949"/>
<path fill-rule="evenodd" clip-rule="evenodd" d="M316.044 26.6859C317.06 26.5119 318.198 26.4539 319.27 26.6359C321.18 26.9585 322.949 27.8452 324.35 29.1819C325.262 29.2019 326.16 29.0219 326.954 28.7659C327.721 28.515 328.458 28.1789 329.15 27.7639L329.168 27.7519C329.456 27.56 329.802 27.4736 330.146 27.5074C330.49 27.5411 330.813 27.6929 331.058 27.937C331.303 28.1811 331.456 28.5026 331.492 28.8468C331.527 29.1911 331.443 29.537 331.252 29.8259C330.838 30.4559 330.26 31.5799 329.614 32.8399L329.304 33.4419C328.934 34.1619 328.554 34.8899 328.2 35.5139C327.978 35.9059 327.74 36.3039 327.5 36.6479V37.1959C327.525 40.4732 326.896 43.7226 325.652 46.7544C324.407 49.7862 322.571 52.5397 320.25 54.8543C317.93 57.1688 315.172 58.9981 312.137 60.2352C309.102 61.4724 305.851 62.0927 302.574 62.0599C297.825 62.0665 293.175 60.6981 289.186 58.1199C288.9 57.936 288.684 57.6601 288.576 57.3376C288.467 57.0151 288.471 56.6652 288.587 56.3453C288.703 56.0255 288.925 55.7547 289.216 55.5774C289.506 55.4002 289.848 55.327 290.186 55.3699C290.786 55.4433 291.389 55.4799 291.996 55.4799C294.157 55.472 296.291 54.9972 298.252 54.0879C297.024 53.5292 295.925 52.7208 295.027 51.7144C294.128 50.7079 293.449 49.5253 293.032 48.2419C292.953 47.9963 292.938 47.7343 292.989 47.4813C293.041 47.2284 293.157 46.993 293.326 46.7979L293.346 46.7779C292.331 45.8735 291.518 44.7659 290.959 43.5269C290.399 42.2879 290.107 40.9452 290.1 39.5859V39.4799C290.1 39.1506 290.208 38.8304 290.408 38.5688C290.608 38.3071 290.888 38.1184 291.206 38.0319C290.529 36.6812 290.178 35.1908 290.18 33.6799C290.179 31.9663 290.627 30.2823 291.48 28.7959C291.601 28.5849 291.772 28.4066 291.977 28.2763C292.183 28.1459 292.417 28.0676 292.659 28.0479C292.902 28.0282 293.146 28.0678 293.369 28.1633C293.593 28.2588 293.79 28.4072 293.944 28.5959C297.444 32.9042 302.455 35.7153 307.956 36.4559C307.908 34.6563 308.362 32.8789 309.267 31.3226C310.172 29.7663 311.492 28.4926 313.08 27.6439C313.884 27.2159 314.948 26.8739 316.044 26.6859ZM293.484 41.7819C293.872 42.875 294.538 43.8485 295.415 44.6071C296.293 45.3658 297.352 45.8836 298.49 46.1099C298.818 46.1752 299.114 46.3481 299.333 46.6012C299.551 46.8543 299.679 47.173 299.695 47.5068C299.712 47.8406 299.616 48.1704 299.424 48.4438C299.232 48.7172 298.954 48.9185 298.634 49.0159C298.089 49.1813 297.533 49.2966 296.966 49.3619C297.581 50.1544 298.365 50.7992 299.261 51.2491C300.158 51.699 301.143 51.9426 302.146 51.9619C302.455 51.9678 302.755 52.0691 303.005 52.252C303.254 52.435 303.441 52.6906 303.54 52.9838C303.638 53.2771 303.644 53.5936 303.555 53.8901C303.467 54.1866 303.289 54.4485 303.046 54.6399C300.959 56.2791 298.536 57.4368 295.95 58.0299C298.092 58.7161 300.327 59.0636 302.576 59.0599H302.594C305.474 59.09 308.331 58.546 310.999 57.4595C313.666 56.3731 316.09 54.766 318.13 52.7322C320.169 50.6984 321.783 48.2786 322.877 45.6142C323.97 42.9497 324.522 40.094 324.5 37.2139V36.1439C324.5 35.7797 324.632 35.4278 324.872 35.1539C325.012 34.9959 325.252 34.6319 325.592 34.0339C325.912 33.4699 326.268 32.7899 326.638 32.0719L326.704 31.9399C325.659 32.1748 324.584 32.2403 323.518 32.1339C323.158 32.0947 322.824 31.9263 322.578 31.6599C321.572 30.5693 320.233 29.8433 318.77 29.5959C318.032 29.4908 317.282 29.5077 316.55 29.6459C315.836 29.7569 315.143 29.9747 314.494 30.2919C313.185 30.9911 312.146 32.105 311.538 33.4587C310.931 34.8125 310.79 36.3295 311.138 37.7719C311.193 37.9987 311.194 38.2352 311.141 38.4625C311.088 38.6898 310.984 38.9017 310.835 39.0813C310.686 39.2609 310.497 39.4033 310.283 39.4972C310.07 39.591 309.837 39.6337 309.604 39.6219C303.46 39.3092 297.651 36.7238 293.306 32.3679C293.222 32.8008 293.179 33.2409 293.18 33.6819V33.6859C293.178 34.7874 293.448 35.8724 293.966 36.8442C294.485 37.816 295.236 38.6445 296.152 39.2559C296.421 39.437 296.624 39.7004 296.731 40.0067C296.838 40.3129 296.842 40.6455 296.744 40.9546C296.646 41.2637 296.45 41.5326 296.186 41.7211C295.922 41.9095 295.604 42.0074 295.28 41.9999C294.677 41.9809 294.076 41.9073 293.486 41.7799" fill="white"/>
<circle cx="443" cy="44" r="44" fill="#C9A949"/>
<path d="M451 36C454.183 36 457.235 37.2643 459.485 39.5147C461.736 41.7652 463 44.8174 463 48V62H455V48C455 46.9391 454.579 45.9217 453.828 45.1716C453.078 44.4214 452.061 44 451 44C449.939 44 448.922 44.4214 448.172 45.1716C447.421 45.9217 447 46.9391 447 48V62H439V48C439 44.8174 440.264 41.7652 442.515 39.5147C444.765 37.2643 447.817 36 451 36ZM423 38H431V62H423V38Z" stroke="white" stroke-width="4" stroke-linecap="round" stroke-linejoin="round"/>
<path d="M427 32C429.209 32 431 30.2091 431 28C431 25.7909 429.209 24 427 24C424.791 24 423 25.7909 423 28C423 30.2091 424.791 32 427 32Z" stroke="white" stroke-width="4" stroke-linecap="round" stroke-linejoin="round"/>
</svg>
