<svg width="266" height="82" viewBox="0 0 266 82" fill="none" xmlns="http://www.w3.org/2000/svg">
<circle cx="35.5" cy="46.5" r="35.5" fill="#C9A949"/>
<path d="M82.36 14.68C83.0267 14.7067 83.92 14.7333 85.04 14.76C86.1867 14.7867 87.32 14.8 88.44 14.8C89.72 14.8 90.96 14.7867 92.16 14.76C93.36 14.7333 94.2133 14.72 94.72 14.72C97.2 14.72 99.2533 15 100.88 15.56C102.533 16.0933 103.76 16.88 104.56 17.92C105.387 18.96 105.8 20.2133 105.8 21.68C105.8 22.5867 105.613 23.5067 105.24 24.44C104.867 25.3467 104.227 26.2 103.32 27C102.44 27.7733 101.227 28.4 99.68 28.88C98.1333 29.3333 96.1867 29.56 93.84 29.56H90V28.76H93.44C95.0133 28.76 96.2 28.4667 97 27.88C97.8267 27.2667 98.3867 26.4667 98.68 25.48C99 24.4667 99.16 23.3467 99.16 22.12C99.16 20.0133 98.7867 18.3867 98.04 17.24C97.2933 16.0667 96.0133 15.48 94.2 15.48C93.16 15.48 92.48 15.7067 92.16 16.16C91.8667 16.6133 91.72 17.5333 91.72 18.92V38.76C91.72 39.72 91.7867 40.44 91.92 40.92C92.08 41.4 92.3733 41.72 92.8 41.88C93.2267 42.04 93.8667 42.1467 94.72 42.2V43C94 42.9467 93.0933 42.92 92 42.92C90.9067 42.8933 89.8 42.88 88.68 42.88C87.4 42.88 86.1867 42.8933 85.04 42.92C83.92 42.92 83.0267 42.9467 82.36 43V42.2C83.2133 42.1467 83.8533 42.04 84.28 41.88C84.7067 41.72 84.9867 41.4 85.12 40.92C85.28 40.44 85.36 39.72 85.36 38.76V18.92C85.36 17.9333 85.28 17.2133 85.12 16.76C84.9867 16.28 84.6933 15.96 84.24 15.8C83.8133 15.6133 83.1867 15.5067 82.36 15.48V14.68ZM89.92 28.88C91.0667 28.9067 92.0533 28.96 92.88 29.04C93.7333 29.12 94.48 29.2 95.12 29.28C95.76 29.3333 96.3333 29.3733 96.84 29.4C99.2667 29.6133 101.053 30.1333 102.2 30.96C103.373 31.7867 104.133 33.0267 104.48 34.68L105.4 38.8C105.64 39.8667 105.893 40.6133 106.16 41.04C106.427 41.4667 106.813 41.68 107.32 41.68C107.667 41.6533 107.947 41.5733 108.16 41.44C108.4 41.28 108.653 41.0533 108.92 40.76L109.48 41.24C108.76 42.0667 107.987 42.6533 107.16 43C106.333 43.3733 105.333 43.56 104.16 43.56C102.72 43.56 101.533 43.2533 100.6 42.64C99.6667 42.0267 99.0533 40.8933 98.76 39.24L98.04 35.24C97.8533 34.12 97.6267 33.1467 97.36 32.32C97.0933 31.4667 96.72 30.8 96.24 30.32C95.7867 29.8133 95.1467 29.56 94.32 29.56H90L89.92 28.88ZM119.975 21.76C121.922 21.76 123.629 22.12 125.095 22.84C126.562 23.56 127.709 24.72 128.535 26.32C129.362 27.92 129.775 30.04 129.775 32.68C129.775 35.32 129.362 37.44 128.535 39.04C127.709 40.6133 126.562 41.76 125.095 42.48C123.629 43.2 121.922 43.56 119.975 43.56C118.082 43.56 116.389 43.2 114.895 42.48C113.429 41.76 112.269 40.6133 111.415 39.04C110.589 37.44 110.175 35.32 110.175 32.68C110.175 30.04 110.589 27.92 111.415 26.32C112.269 24.72 113.429 23.56 114.895 22.84C116.389 22.12 118.082 21.76 119.975 21.76ZM119.975 22.56C118.909 22.56 118.015 23.36 117.295 24.96C116.575 26.5333 116.215 29.1067 116.215 32.68C116.215 36.2533 116.575 38.8267 117.295 40.4C118.015 41.9733 118.909 42.76 119.975 42.76C121.069 42.76 121.962 41.9733 122.655 40.4C123.375 38.8267 123.735 36.2533 123.735 32.68C123.735 29.1067 123.375 26.5333 122.655 24.96C121.962 23.36 121.069 22.56 119.975 22.56ZM151.325 22.32V23.12C150.818 23.2533 150.338 23.5733 149.885 24.08C149.431 24.56 148.991 25.3867 148.565 26.56L142.925 42.4L141.445 45.2L132.725 25.4C132.271 24.36 131.818 23.7333 131.365 23.52C130.938 23.28 130.565 23.16 130.245 23.16V22.32C131.125 22.4 132.031 22.4667 132.965 22.52C133.925 22.5467 134.845 22.56 135.725 22.56C136.818 22.56 137.818 22.5333 138.725 22.48C139.631 22.4267 140.485 22.3733 141.285 22.32V23.16C140.751 23.16 140.245 23.2 139.765 23.28C139.311 23.3333 138.991 23.52 138.805 23.84C138.645 24.1333 138.725 24.6533 139.045 25.4L144.085 37.56L143.725 37.8L146.685 29.52C147.191 28.08 147.405 26.9067 147.325 26C147.245 25.0667 146.951 24.3733 146.445 23.92C145.938 23.44 145.245 23.1733 144.365 23.12V22.32C144.791 22.3467 145.231 22.3733 145.685 22.4C146.138 22.4 146.591 22.4133 147.045 22.44C147.498 22.44 147.898 22.44 148.245 22.44C148.778 22.44 149.338 22.4267 149.925 22.4C150.511 22.3733 150.978 22.3467 151.325 22.32ZM142.925 42.4L141.405 46.68C141.138 47.3467 140.858 47.9067 140.565 48.36C140.298 48.84 139.991 49.2267 139.645 49.52C139.271 49.84 138.791 50.08 138.205 50.24C137.618 50.4267 136.938 50.52 136.165 50.52C135.525 50.52 134.858 50.4133 134.165 50.2C133.498 49.9867 132.938 49.64 132.485 49.16C132.031 48.68 131.805 48.0667 131.805 47.32C131.805 46.4933 132.098 45.8267 132.685 45.32C133.271 44.84 134.045 44.6 135.005 44.6C135.885 44.6 136.605 44.8133 137.165 45.24C137.725 45.6667 138.005 46.2933 138.005 47.12C138.005 47.6533 137.831 48.16 137.485 48.64C137.165 49.12 136.671 49.48 136.005 49.72C136.138 49.7467 136.298 49.76 136.485 49.76C136.671 49.76 136.818 49.76 136.925 49.76C137.725 49.76 138.431 49.5067 139.045 49C139.658 48.4933 140.165 47.6933 140.565 46.6L141.965 42.48L142.925 42.4ZM157.558 43.28C156.358 43.28 155.358 43.0533 154.558 42.6C153.758 42.1467 153.171 41.5467 152.798 40.8C152.425 40.0267 152.238 39.1867 152.238 38.28C152.238 37.1333 152.491 36.2 152.998 35.48C153.531 34.76 154.211 34.1733 155.038 33.72C155.865 33.2667 156.731 32.8933 157.638 32.6C158.571 32.3067 159.451 32.0267 160.278 31.76C161.131 31.4667 161.811 31.1333 162.318 30.76C162.851 30.36 163.118 29.8533 163.118 29.24V26.12C163.118 25.4267 162.998 24.8133 162.758 24.28C162.545 23.72 162.198 23.2933 161.718 23C161.265 22.7067 160.665 22.56 159.918 22.56C159.385 22.56 158.851 22.64 158.318 22.8C157.785 22.9333 157.345 23.1733 156.998 23.52C157.745 23.7867 158.318 24.2 158.718 24.76C159.145 25.2933 159.358 25.9067 159.358 26.6C159.358 27.5067 159.038 28.2267 158.398 28.76C157.785 29.2933 157.051 29.56 156.198 29.56C155.238 29.56 154.505 29.2667 153.998 28.68C153.518 28.0667 153.278 27.3333 153.278 26.48C153.278 25.7067 153.465 25.0667 153.838 24.56C154.238 24.0533 154.785 23.5733 155.478 23.12C156.225 22.6933 157.118 22.36 158.158 22.12C159.225 21.88 160.371 21.76 161.598 21.76C162.825 21.76 163.931 21.8933 164.918 22.16C165.905 22.4 166.731 22.8533 167.398 23.52C168.011 24.1333 168.411 24.8933 168.598 25.8C168.785 26.68 168.878 27.8 168.878 29.16V40.04C168.878 40.7067 168.945 41.1733 169.078 41.44C169.211 41.68 169.438 41.8 169.758 41.8C169.998 41.8 170.225 41.7333 170.438 41.6C170.678 41.4667 170.931 41.3067 171.198 41.12L171.598 41.8C171.038 42.28 170.385 42.6533 169.638 42.92C168.918 43.16 168.105 43.28 167.198 43.28C166.211 43.28 165.425 43.1467 164.838 42.88C164.251 42.5867 163.825 42.2 163.558 41.72C163.318 41.24 163.198 40.68 163.198 40.04C162.558 41.0533 161.785 41.8533 160.878 42.44C159.971 43 158.865 43.28 157.558 43.28ZM160.398 40.72C160.931 40.72 161.411 40.6 161.838 40.36C162.291 40.0933 162.718 39.6667 163.118 39.08V30.88C162.878 31.28 162.545 31.64 162.118 31.96C161.691 32.28 161.238 32.6133 160.758 32.96C160.278 33.28 159.811 33.64 159.358 34.04C158.931 34.44 158.585 34.9333 158.318 35.52C158.051 36.1067 157.918 36.8133 157.918 37.64C157.918 38.68 158.145 39.4533 158.598 39.96C159.051 40.4667 159.651 40.72 160.398 40.72ZM180.901 11.68V39.28C180.901 40.4 181.088 41.16 181.461 41.56C181.861 41.96 182.528 42.16 183.461 42.16V43C182.955 42.9733 182.195 42.9467 181.181 42.92C180.168 42.8667 179.141 42.84 178.101 42.84C177.061 42.84 176.008 42.8667 174.941 42.92C173.901 42.9467 173.115 42.9733 172.581 43V42.16C173.515 42.16 174.168 41.96 174.541 41.56C174.941 41.16 175.141 40.4 175.141 39.28V16.48C175.141 15.28 174.955 14.4 174.581 13.84C174.235 13.2533 173.568 12.96 172.581 12.96V12.12C173.435 12.2 174.261 12.24 175.061 12.24C176.155 12.24 177.195 12.2 178.181 12.12C179.168 12.0133 180.075 11.8667 180.901 11.68ZM195.563 14.16C197.136 14.16 198.35 14.3333 199.203 14.68C200.056 15 200.79 15.3467 201.403 15.72C201.723 15.9067 201.976 16.0533 202.163 16.16C202.376 16.24 202.576 16.28 202.763 16.28C203.03 16.28 203.216 16.1333 203.323 15.84C203.456 15.5467 203.563 15.1067 203.643 14.52H204.563C204.536 15.0267 204.496 15.64 204.443 16.36C204.416 17.0533 204.39 17.9733 204.363 19.12C204.363 20.2667 204.363 21.7733 204.363 23.64H203.443C203.336 22.2533 203.016 20.9067 202.483 19.6C201.95 18.2933 201.19 17.2267 200.203 16.4C199.243 15.5467 198.056 15.12 196.643 15.12C195.363 15.12 194.31 15.48 193.483 16.2C192.656 16.92 192.243 17.92 192.243 19.2C192.243 20.2667 192.51 21.1867 193.043 21.96C193.576 22.7067 194.35 23.44 195.363 24.16C196.403 24.88 197.656 25.7467 199.123 26.76C200.403 27.5867 201.55 28.4133 202.563 29.24C203.576 30.0667 204.39 31 205.003 32.04C205.616 33.08 205.923 34.32 205.923 35.76C205.923 37.52 205.456 38.9733 204.523 40.12C203.616 41.2667 202.416 42.1333 200.923 42.72C199.43 43.28 197.79 43.56 196.003 43.56C194.35 43.56 193.03 43.4 192.043 43.08C191.056 42.76 190.23 42.4267 189.563 42.08C188.976 41.7067 188.523 41.52 188.203 41.52C187.936 41.52 187.736 41.6667 187.603 41.96C187.496 42.2533 187.403 42.6933 187.323 43.28H186.403C186.456 42.64 186.483 41.8933 186.483 41.04C186.51 40.1867 186.523 39.08 186.523 37.72C186.55 36.3333 186.563 34.5867 186.563 32.48H187.483C187.59 34.24 187.883 35.8933 188.363 37.44C188.87 38.96 189.63 40.1867 190.643 41.12C191.683 42.0533 193.056 42.52 194.763 42.52C195.696 42.52 196.523 42.36 197.243 42.04C197.99 41.6933 198.59 41.1867 199.043 40.52C199.496 39.8533 199.723 39.0267 199.723 38.04C199.723 36.92 199.456 35.9467 198.923 35.12C198.416 34.2933 197.71 33.52 196.803 32.8C195.923 32.08 194.896 31.3467 193.723 30.6C192.47 29.7733 191.296 28.9467 190.203 28.12C189.11 27.2933 188.23 26.3467 187.563 25.28C186.923 24.2133 186.603 22.9467 186.603 21.48C186.603 19.8 187.016 18.4267 187.843 17.36C188.696 16.2667 189.803 15.4667 191.163 14.96C192.55 14.4267 194.016 14.16 195.563 14.16ZM216.643 15.76V22.32H221.363V23.12H216.643V39.28C216.643 40.08 216.789 40.6533 217.083 41C217.376 41.32 217.816 41.48 218.403 41.48C218.883 41.48 219.363 41.3067 219.843 40.96C220.323 40.5867 220.749 39.96 221.123 39.08L221.803 39.44C221.376 40.64 220.723 41.6267 219.843 42.4C218.989 43.1733 217.816 43.56 216.323 43.56C215.443 43.56 214.669 43.44 214.003 43.2C213.336 42.9867 212.776 42.6533 212.323 42.2C211.736 41.6133 211.349 40.8933 211.163 40.04C210.976 39.16 210.883 38.0267 210.883 36.64V23.12H207.522V22.32H210.883V17.04C212.003 17.04 213.029 16.9467 213.963 16.76C214.923 16.5467 215.816 16.2133 216.643 15.76ZM228.105 43.28C226.905 43.28 225.905 43.0533 225.105 42.6C224.305 42.1467 223.718 41.5467 223.345 40.8C222.972 40.0267 222.785 39.1867 222.785 38.28C222.785 37.1333 223.038 36.2 223.545 35.48C224.078 34.76 224.758 34.1733 225.585 33.72C226.412 33.2667 227.278 32.8933 228.185 32.6C229.118 32.3067 229.998 32.0267 230.825 31.76C231.678 31.4667 232.358 31.1333 232.865 30.76C233.398 30.36 233.665 29.8533 233.665 29.24V26.12C233.665 25.4267 233.545 24.8133 233.305 24.28C233.092 23.72 232.745 23.2933 232.265 23C231.812 22.7067 231.212 22.56 230.465 22.56C229.932 22.56 229.398 22.64 228.865 22.8C228.332 22.9333 227.892 23.1733 227.545 23.52C228.292 23.7867 228.865 24.2 229.265 24.76C229.692 25.2933 229.905 25.9067 229.905 26.6C229.905 27.5067 229.585 28.2267 228.945 28.76C228.332 29.2933 227.598 29.56 226.745 29.56C225.785 29.56 225.052 29.2667 224.545 28.68C224.065 28.0667 223.825 27.3333 223.825 26.48C223.825 25.7067 224.012 25.0667 224.385 24.56C224.785 24.0533 225.332 23.5733 226.025 23.12C226.772 22.6933 227.665 22.36 228.705 22.12C229.772 21.88 230.918 21.76 232.145 21.76C233.372 21.76 234.478 21.8933 235.465 22.16C236.452 22.4 237.278 22.8533 237.945 23.52C238.558 24.1333 238.958 24.8933 239.145 25.8C239.332 26.68 239.425 27.8 239.425 29.16V40.04C239.425 40.7067 239.492 41.1733 239.625 41.44C239.758 41.68 239.985 41.8 240.305 41.8C240.545 41.8 240.772 41.7333 240.985 41.6C241.225 41.4667 241.478 41.3067 241.745 41.12L242.145 41.8C241.585 42.28 240.932 42.6533 240.185 42.92C239.465 43.16 238.652 43.28 237.745 43.28C236.758 43.28 235.972 43.1467 235.385 42.88C234.798 42.5867 234.372 42.2 234.105 41.72C233.865 41.24 233.745 40.68 233.745 40.04C233.105 41.0533 232.332 41.8533 231.425 42.44C230.518 43 229.412 43.28 228.105 43.28ZM230.945 40.72C231.478 40.72 231.958 40.6 232.385 40.36C232.838 40.0933 233.265 39.6667 233.665 39.08V30.88C233.425 31.28 233.092 31.64 232.665 31.96C232.238 32.28 231.785 32.6133 231.305 32.96C230.825 33.28 230.358 33.64 229.905 34.04C229.478 34.44 229.132 34.9333 228.865 35.52C228.598 36.1067 228.465 36.8133 228.465 37.64C228.465 38.68 228.692 39.4533 229.145 39.96C229.598 40.4667 230.198 40.72 230.945 40.72ZM262.497 22.32V23.12C261.99 23.2533 261.51 23.5733 261.057 24.08C260.603 24.56 260.163 25.3867 259.737 26.56L254.097 42.4L252.617 45.2L243.897 25.4C243.443 24.36 242.99 23.7333 242.537 23.52C242.11 23.28 241.737 23.16 241.417 23.16V22.32C242.297 22.4 243.203 22.4667 244.137 22.52C245.097 22.5467 246.017 22.56 246.897 22.56C247.99 22.56 248.99 22.5333 249.897 22.48C250.803 22.4267 251.657 22.3733 252.457 22.32V23.16C251.923 23.16 251.417 23.2 250.937 23.28C250.483 23.3333 250.163 23.52 249.977 23.84C249.817 24.1333 249.897 24.6533 250.217 25.4L255.257 37.56L254.897 37.8L257.857 29.52C258.363 28.08 258.577 26.9067 258.497 26C258.417 25.0667 258.123 24.3733 257.617 23.92C257.11 23.44 256.417 23.1733 255.537 23.12V22.32C255.963 22.3467 256.403 22.3733 256.857 22.4C257.31 22.4 257.763 22.4133 258.217 22.44C258.67 22.44 259.07 22.44 259.417 22.44C259.95 22.44 260.51 22.4267 261.097 22.4C261.683 22.3733 262.15 22.3467 262.497 22.32ZM254.097 42.4L252.577 46.68C252.31 47.3467 252.03 47.9067 251.737 48.36C251.47 48.84 251.163 49.2267 250.817 49.52C250.443 49.84 249.963 50.08 249.377 50.24C248.79 50.4267 248.11 50.52 247.337 50.52C246.697 50.52 246.03 50.4133 245.337 50.2C244.67 49.9867 244.11 49.64 243.657 49.16C243.203 48.68 242.977 48.0667 242.977 47.32C242.977 46.4933 243.27 45.8267 243.857 45.32C244.443 44.84 245.217 44.6 246.177 44.6C247.057 44.6 247.777 44.8133 248.337 45.24C248.897 45.6667 249.177 46.2933 249.177 47.12C249.177 47.6533 249.003 48.16 248.657 48.64C248.337 49.12 247.843 49.48 247.177 49.72C247.31 49.7467 247.47 49.76 247.657 49.76C247.843 49.76 247.99 49.76 248.097 49.76C248.897 49.76 249.603 49.5067 250.217 49C250.83 48.4933 251.337 47.6933 251.737 46.6L253.137 42.48L254.097 42.4ZM83.3555 76V58.8672H85.3477V74.1953H92.9062V76H83.3555ZM108.762 58.8672V69.9531C108.762 71.9062 108.172 73.4414 106.992 74.5586C105.812 75.6758 104.191 76.2344 102.129 76.2344C100.066 76.2344 98.4688 75.6719 97.3359 74.5469C96.2109 73.4219 95.6484 71.875 95.6484 69.9062V58.8672H97.6406V70.0469C97.6406 71.4766 98.0312 72.5742 98.8125 73.3398C99.5938 74.1055 100.742 74.4883 102.258 74.4883C103.703 74.4883 104.816 74.1055 105.598 73.3398C106.379 72.5664 106.77 71.4609 106.77 70.0234V58.8672H108.762ZM124.711 76H122.449L117.844 68.4648L113.156 76H111.047L116.742 67.0469L111.434 58.8672H113.637L117.891 65.6523L122.18 58.8672H124.301L118.992 66.9766L124.711 76ZM140.098 58.8672V69.9531C140.098 71.9062 139.508 73.4414 138.328 74.5586C137.148 75.6758 135.527 76.2344 133.465 76.2344C131.402 76.2344 129.805 75.6719 128.672 74.5469C127.547 73.4219 126.984 71.875 126.984 69.9062V58.8672H128.977V70.0469C128.977 71.4766 129.367 72.5742 130.148 73.3398C130.93 74.1055 132.078 74.4883 133.594 74.4883C135.039 74.4883 136.152 74.1055 136.934 73.3398C137.715 72.5664 138.105 71.4609 138.105 70.0234V58.8672H140.098ZM146.637 68.875V76H144.645V58.8672H149.344C151.445 58.8672 152.996 59.2695 153.996 60.0742C155.004 60.8789 155.508 62.0898 155.508 63.707C155.508 65.9727 154.359 67.5039 152.062 68.3008L156.715 76H154.359L150.211 68.875H146.637ZM146.637 67.1641H149.367C150.773 67.1641 151.805 66.8867 152.461 66.332C153.117 65.7695 153.445 64.9297 153.445 63.8125C153.445 62.6797 153.109 61.8633 152.438 61.3633C151.773 60.8633 150.703 60.6133 149.227 60.6133H146.637V67.1641ZM163.84 67.4336L168.41 58.8672H170.566L164.848 69.3555V76H162.832V69.4492L157.125 58.8672H159.305L163.84 67.4336ZM192.176 76H190.184V67.9375H181.16V76H179.168V58.8672H181.16V66.1562H190.184V58.8672H192.176V76ZM211.758 67.4102C211.758 70.1523 211.062 72.3086 209.672 73.8789C208.289 75.4492 206.363 76.2344 203.895 76.2344C201.371 76.2344 199.422 75.4648 198.047 73.9258C196.68 72.3789 195.996 70.1992 195.996 67.3867C195.996 64.5977 196.684 62.4375 198.059 60.9062C199.434 59.3672 201.387 58.5977 203.918 58.5977C206.379 58.5977 208.301 59.3789 209.684 60.9414C211.066 62.5039 211.758 64.6602 211.758 67.4102ZM198.105 67.4102C198.105 69.7305 198.598 71.4922 199.582 72.6953C200.574 73.8906 202.012 74.4883 203.895 74.4883C205.793 74.4883 207.227 73.8906 208.195 72.6953C209.164 71.5 209.648 69.7383 209.648 67.4102C209.648 65.1055 209.164 63.3594 208.195 62.1719C207.234 60.9766 205.809 60.3789 203.918 60.3789C202.02 60.3789 200.574 60.9805 199.582 62.1836C198.598 63.3789 198.105 65.1211 198.105 67.4102ZM220.863 76H218.871V60.6367H213.445V58.8672H226.289V60.6367H220.863V76ZM238.43 76H228.879V58.8672H238.43V60.6367H230.871V66.1562H237.973V67.9141H230.871V74.2188H238.43V76ZM242.238 76V58.8672H244.23V74.1953H251.789V76H242.238Z" fill="black"/>
<path d="M36 29.5C36.6566 29.5001 37.3001 29.685 37.8567 30.0335C38.4133 30.3819 38.8606 30.88 39.1475 31.4707C39.4345 32.0613 39.5495 32.7208 39.4793 33.3738C39.4092 34.0267 39.1568 34.6467 38.751 35.163L40.1387 38.6332L43.1172 35.6548C42.9795 35.1362 42.9627 34.5929 43.0681 34.0668C43.1735 33.5407 43.3982 33.0458 43.7251 32.6202C44.0519 32.1947 44.472 31.8499 44.9531 31.6123C45.4342 31.3747 45.9634 31.2508 46.5 31.25C47.3253 31.2489 48.1245 31.5394 48.7564 32.0703C49.3882 32.6013 49.8122 33.3384 49.9533 34.1516C50.0944 34.9648 49.9436 35.8016 49.5275 36.5144C49.1115 37.2272 48.4569 37.77 47.6795 38.047L44.722 54.3133C44.655 54.6813 44.4719 55.0182 44.1995 55.2746C43.9271 55.531 43.5796 55.6933 43.2082 55.7378L43 55.75H29C28.6259 55.7502 28.2615 55.6305 27.9604 55.4084C27.6593 55.1864 27.4373 54.8737 27.327 54.5163L27.278 54.3133L24.3205 38.047C23.6805 37.8177 23.1211 37.4069 22.7107 36.8649C22.3004 36.3229 22.0567 35.6732 22.0095 34.995C21.9624 34.3168 22.1137 33.6395 22.4451 33.0459C22.7766 32.4524 23.2737 31.9681 23.8757 31.6524C24.4778 31.3367 25.1588 31.2032 25.8355 31.2682C26.5123 31.3331 27.1554 31.5938 27.6864 32.0182C28.2175 32.4427 28.6134 33.0127 28.8258 33.6584C29.0383 34.3042 29.058 34.9979 28.8827 35.6548L31.8595 38.6332L33.249 35.163C32.8431 34.6467 32.5907 34.0267 32.5206 33.3738C32.4505 32.7208 32.5655 32.0613 32.8524 31.4707C33.1393 30.88 33.5867 30.3819 34.1433 30.0335C34.6999 29.685 35.3433 29.5001 36 29.5ZM46.5 57.5H25.5C25.0358 57.5 24.5907 57.6844 24.2625 58.0126C23.9343 58.3407 23.75 58.7859 23.75 59.25C23.75 60.1783 24.1187 61.0685 24.7751 61.7249C25.4315 62.3812 26.3217 62.75 27.25 62.75H44.75C45.6081 62.7502 46.4363 62.4352 47.0774 61.8648C47.7185 61.2944 48.1277 60.5083 48.2272 59.656L48.2465 59.3515C48.2603 59.1136 48.2254 58.8754 48.1439 58.6514C48.0623 58.4275 47.9359 58.2225 47.7724 58.0492C47.6089 57.8758 47.4117 57.7377 47.1929 57.6433C46.9741 57.5488 46.7383 57.5001 46.5 57.5Z" fill="white"/>
</svg>
