<svg width="44" height="37" viewBox="0 0 44 37" fill="none" xmlns="http://www.w3.org/2000/svg">
<path fill-rule="evenodd" clip-rule="evenodd" d="M28.044 0.685933C29.06 0.511933 30.198 0.453934 31.27 0.635934C33.1795 0.958472 34.9488 1.84519 36.35 3.18193C37.262 3.20193 38.16 3.02193 38.954 2.76593C39.7212 2.51504 40.4578 2.17894 41.15 1.76393L41.168 1.75193C41.456 1.56004 41.8015 1.47364 42.1459 1.50738C42.4904 1.54111 42.8125 1.6929 43.0578 1.93702C43.3031 2.18115 43.4565 2.50258 43.4919 2.84684C43.5273 3.1911 43.4425 3.53701 43.252 3.82593C42.838 4.45593 42.26 5.57993 41.614 6.83993L41.304 7.44193C40.934 8.16193 40.554 8.88993 40.2 9.51393C39.978 9.90593 39.74 10.3039 39.5 10.6479V11.1959C39.5246 14.4732 38.8962 17.7226 37.6515 20.7544C36.4068 23.7862 34.5707 26.5397 32.2504 28.8543C29.93 31.1688 27.1719 32.9981 24.137 34.2352C21.1021 35.4724 17.8512 36.0927 14.574 36.0599C9.82458 36.0665 5.17477 34.6981 1.18602 32.1199C0.899674 31.936 0.684408 31.6601 0.575577 31.3376C0.466747 31.0151 0.470823 30.6652 0.587136 30.3453C0.703449 30.0255 0.925083 29.7547 1.21564 29.5774C1.50619 29.4002 1.84838 29.327 2.18602 29.3699C2.78602 29.4433 3.38935 29.4799 3.99602 29.4799C6.15728 29.472 8.29132 28.9972 10.252 28.0879C9.02382 27.5292 7.9254 26.7208 7.02669 25.7144C6.12799 24.7079 5.44868 23.5253 5.03202 22.2419C4.95262 21.9963 4.93797 21.7343 4.98947 21.4813C5.04098 21.2284 5.1569 20.993 5.32602 20.7979L5.34602 20.7779C4.33123 19.8735 3.51787 18.7659 2.95868 17.5269C2.39948 16.2879 2.10694 14.9452 2.10002 13.5859V13.4799C2.09987 13.1506 2.20809 12.8304 2.40797 12.5688C2.60785 12.3071 2.88829 12.1184 3.20602 12.0319C2.52907 10.6812 2.1777 9.19079 2.18002 7.67993C2.17888 5.96627 2.62712 4.28227 3.48002 2.79593C3.60119 2.58494 3.77187 2.40659 3.97734 2.27627C4.18281 2.14594 4.4169 2.06756 4.65942 2.04787C4.90193 2.02819 5.1456 2.06779 5.36939 2.16328C5.59319 2.25876 5.7904 2.40724 5.94402 2.59593C9.44372 6.90423 14.455 9.71531 19.956 10.4559C19.9082 8.6563 20.3622 6.87889 21.2672 5.3226C22.1721 3.76632 23.4923 2.49258 25.08 1.64393C25.884 1.21593 26.948 0.873933 28.044 0.685933ZM5.48402 15.7819C5.87239 16.875 6.53789 17.8485 7.41539 18.6071C8.2929 19.3658 9.35233 19.8836 10.49 20.1099C10.8178 20.1752 11.1144 20.3481 11.3327 20.6012C11.551 20.8543 11.6786 21.173 11.6951 21.5068C11.7116 21.8406 11.6162 22.1704 11.424 22.4438C11.2318 22.7172 10.9537 22.9185 10.634 23.0159C10.0887 23.1813 9.53269 23.2966 8.96602 23.3619C9.58071 24.1544 10.365 24.7992 11.2613 25.2491C12.1576 25.699 13.1433 25.9426 14.146 25.9619C14.4553 25.9678 14.7553 26.0691 15.0048 26.252C15.2542 26.435 15.441 26.6906 15.5396 26.9838C15.6382 27.2771 15.6436 27.5936 15.5553 27.8901C15.4669 28.1866 15.289 28.4485 15.046 28.6399C12.9595 30.2791 10.5363 31.4368 7.95002 32.0299C10.0916 32.7161 12.3272 33.0636 14.576 33.0599H14.594C17.4741 33.09 20.3312 32.546 22.9987 31.4595C25.6661 30.3731 28.0903 28.766 30.1297 26.7322C32.1691 24.6984 33.7828 22.2786 34.8766 19.6142C35.9703 16.9497 36.5222 14.094 36.5 11.2139V10.1439C36.4997 9.77971 36.6319 9.42783 36.872 9.15393C37.012 8.99593 37.252 8.63193 37.592 8.03393C37.912 7.46993 38.268 6.78993 38.638 6.07193L38.704 5.93993C37.6593 6.17477 36.5836 6.24027 35.518 6.13393C35.1577 6.09469 34.8238 5.92631 34.578 5.65993C33.5722 4.5693 32.2329 3.84334 30.77 3.59593C30.0323 3.49085 29.2823 3.50774 28.55 3.64593C27.8362 3.7569 27.1431 3.97467 26.494 4.29193C25.1853 4.99114 24.1458 6.10497 23.5384 7.45872C22.931 8.81246 22.7902 10.3295 23.138 11.7719C23.1928 11.9987 23.1938 12.2352 23.1412 12.4625C23.0885 12.6898 22.9835 12.9017 22.8346 13.0813C22.6856 13.2609 22.4969 13.4033 22.2832 13.4972C22.0696 13.591 21.837 13.6337 21.604 13.6219C15.4596 13.3092 9.65084 10.7238 5.30602 6.36793C5.22151 6.80081 5.17931 7.24088 5.18002 7.68193V7.68593C5.17777 8.78743 5.44794 9.87238 5.96647 10.8442C6.485 11.816 7.2358 12.6445 8.15202 13.2559C8.42107 13.437 8.62419 13.7004 8.73092 14.0067C8.83765 14.3129 8.84225 14.6455 8.74403 14.9546C8.64581 15.2637 8.45005 15.5326 8.18611 15.7211C7.92216 15.9095 7.60425 16.0074 7.28002 15.9999C6.6766 15.9809 6.07615 15.9073 5.48602 15.7799" fill="white"/>
</svg>
