<svg width="44" height="30" viewBox="0 0 44 30" fill="none" xmlns="http://www.w3.org/2000/svg">
<path d="M30 2C33.1826 2 36.2348 3.26428 38.4853 5.51472C40.7357 7.76516 42 10.8174 42 14V28H34V14C34 12.9391 33.5786 11.9217 32.8284 11.1716C32.0783 10.4214 31.0609 10 30 10C28.9391 10 27.9217 10.4214 27.1716 11.1716C26.4214 11.9217 26 12.9391 26 14V28H18V14C18 10.8174 19.2643 7.76516 21.5147 5.51472C23.7652 3.26428 26.8174 2 30 2ZM2 4H10V28H2V4Z" stroke="white" stroke-width="4" stroke-linecap="round" stroke-linejoin="round"/>
</svg>
