<svg width="31" height="32" viewBox="0 0 31 32" fill="none" xmlns="http://www.w3.org/2000/svg">
<path d="M15.5 28.8C18.7887 28.8 21.9427 27.4514 24.2681 25.051C26.5936 22.6505 27.9 19.3948 27.9 16C27.9 12.6052 26.5936 9.3495 24.2681 6.94903C21.9427 4.54857 18.7887 3.2 15.5 3.2C12.2113 3.2 9.05733 4.54857 6.73188 6.94903C4.40642 9.3495 3.1 12.6052 3.1 16C3.1 19.3948 4.40642 22.6505 6.73188 25.051C9.05733 27.4514 12.2113 28.8 15.5 28.8ZM15.5 0C17.5355 0 19.551 0.413852 21.4316 1.21793C23.3121 2.022 25.0208 3.20055 26.4602 4.68629C27.8995 6.17203 29.0412 7.93586 29.8201 9.87706C30.5991 11.8183 31 13.8989 31 16C31 20.2435 29.367 24.3131 26.4602 27.3137C23.5533 30.3143 19.6109 32 15.5 32C6.9285 32 0 24.8 0 16C0 11.7565 1.63303 7.68687 4.53984 4.68629C7.44666 1.68571 11.3891 0 15.5 0ZM16.275 8V16.4L23.25 20.672L22.0875 22.64L13.95 17.6V8H16.275Z" fill="#C9A949"/>
</svg>
