<svg width="20" height="26" viewBox="0 0 20 26" fill="none" xmlns="http://www.w3.org/2000/svg">
<path d="M16.25 17.1328V25.3985C16.25 25.5049 16.2207 25.6094 16.165 25.7013C16.1094 25.7933 16.0294 25.8694 15.9331 25.9218C15.8369 25.9743 15.728 26.0012 15.6174 26C15.5068 25.9987 15.3986 25.9692 15.3037 25.9145L10 22.8521L4.69625 25.9145C4.6013 25.9692 4.49295 25.9987 4.38227 26C4.27159 26.0012 4.16255 25.9741 4.0663 25.9215C3.97006 25.8689 3.89006 25.7927 3.83448 25.7006C3.77891 25.6084 3.74976 25.5038 3.75 25.3973V17.134C2.13268 15.888 0.957491 14.1894 0.386824 12.2729C-0.183843 10.3564 -0.121805 8.31667 0.564364 6.43558C1.25053 4.55449 2.52695 2.92492 4.21723 1.77207C5.9075 0.619213 7.92818 0 10 0C12.0718 0 14.0925 0.619213 15.7828 1.77207C17.473 2.92492 18.7495 4.55449 19.4356 6.43558C20.1218 8.31667 20.1838 10.3564 19.6132 12.2729C19.0425 14.1894 17.8673 15.888 16.25 17.134M6.25 18.5461V22.2134L10 20.0484L13.75 22.2134V18.5449C12.5583 19.0075 11.2851 19.2448 10 19.2437C8.71495 19.2448 7.44173 19.0087 6.25 18.5461ZM10 16.8381C11.9891 16.8381 13.8968 16.0777 15.3033 14.7243C16.7098 13.3709 17.5 11.5353 17.5 9.62125C17.5 7.70723 16.7098 5.87159 15.3033 4.51817C13.8968 3.16475 11.9891 2.40441 10 2.40441C8.01088 2.40441 6.10322 3.16475 4.6967 4.51817C3.29018 5.87159 2.5 7.70723 2.5 9.62125C2.5 11.5353 3.29018 13.3709 4.6967 14.7243C6.10322 16.0777 8.01088 16.8381 10 16.8381Z" fill="#C9A949"/>
</svg>
