<svg width="66" height="65" viewBox="0 0 66 65" fill="none" xmlns="http://www.w3.org/2000/svg">
<path d="M6.03165 9.43665L18.0312 9.3777M12.0004 3.52201L12.0625 15.2923M48.2785 56.3116L54.2783 56.2822M51.2629 53.3543L51.294 59.2395M43.6865 38.8636C42.6497 39.1314 41.7051 39.6669 40.9509 40.4143C40.1967 41.1616 39.6604 42.0936 39.398 43.1133L34.7475 61.1894C34.66 61.4978 34.4723 61.7698 34.2129 61.9641C33.9535 62.1584 33.6366 62.2644 33.3102 62.266C32.9838 62.2676 32.6657 62.1647 32.4043 61.973C32.1429 61.7812 31.9523 61.5111 31.8616 61.2035L27.0175 43.1741C26.7445 42.1575 26.1989 41.231 25.4374 40.4911C24.6759 39.7512 23.7263 39.2249 22.6873 38.9668L4.25844 34.4021C3.94275 34.3171 3.66405 34.1331 3.46487 33.8783C3.26568 33.6234 3.15695 33.3117 3.15526 32.9906C3.15356 32.6695 3.259 32.3567 3.45548 32.0999C3.65197 31.8431 3.92871 31.6564 4.24348 31.5683L22.6232 26.8257C23.66 26.5579 24.6047 26.0224 25.3589 25.2751C26.1131 24.5277 26.6493 23.5957 26.9118 22.576L31.5593 4.49999C31.6449 4.18912 31.8322 3.91442 32.0924 3.71803C32.3525 3.52165 32.6712 3.41442 32.9995 3.41281C33.3278 3.4112 33.6476 3.51529 33.9099 3.70911C34.1721 3.90292 34.3622 4.17577 34.4512 4.48578L39.2893 22.5152C39.5625 23.5322 40.1085 24.4589 40.8706 25.1989C41.6326 25.9388 42.5829 26.4649 43.6224 26.7225L62.0513 31.2873C62.367 31.3723 62.6457 31.5562 62.8449 31.8111C63.0441 32.0659 63.1528 32.3777 63.1545 32.6987C63.1562 33.0198 63.0507 33.3326 62.8543 33.5894C62.6578 33.8462 62.381 34.0329 62.0663 34.121L43.6865 38.8636Z" stroke="#C9A949" stroke-width="5" stroke-linecap="round" stroke-linejoin="round"/>
</svg>
