<svg width="70" height="62" viewBox="0 0 70 62" fill="none" xmlns="http://www.w3.org/2000/svg">
<path d="M34.9925 0.265503C36.634 0.265717 38.2423 0.603658 39.6336 1.24071C41.0249 1.87775 42.1431 2.78821 42.8604 3.86802C43.5776 4.94782 43.865 6.15343 43.6897 7.34704C43.5144 8.54065 42.8835 9.67412 41.8691 10.6179L45.338 16.9618L52.7832 11.5169C52.4391 10.5688 52.3971 9.5757 52.6605 8.61394C52.9239 7.65218 53.4857 6.74748 54.3027 5.96956C55.1196 5.19163 56.1698 4.56124 57.3723 4.12695C58.5749 3.69266 59.8978 3.46607 61.239 3.46464C63.302 3.46254 65.2997 3.99369 66.8792 4.96426C68.4587 5.93484 69.5184 7.2824 69.8712 8.76895C70.2239 10.2555 69.847 11.7854 68.8069 13.0884C67.7669 14.3914 66.1307 15.3837 64.1873 15.8901L56.7946 45.6261C56.6273 46.2989 56.1696 46.9148 55.4886 47.3835C54.8076 47.8521 53.9392 48.1489 53.0107 48.2301L52.4902 48.2525H17.4948C16.5597 48.2529 15.649 48.034 14.8963 47.6281C14.1437 47.2222 13.5888 46.6506 13.3129 45.9972L13.1904 45.6261L5.79764 15.8901C4.19788 15.4709 2.7997 14.72 1.77387 13.7292C0.748045 12.7384 0.138985 11.5505 0.0210854 10.3107C-0.0968138 9.07094 0.281551 7.83287 1.10997 6.74775C1.93838 5.66263 3.18098 4.77745 4.68599 4.20031C6.19099 3.62318 7.89325 3.37908 9.58483 3.49783C11.2764 3.61659 12.8841 4.09305 14.2115 4.86903C15.5389 5.64501 16.5285 6.68691 17.0596 7.86746C17.5906 9.04801 17.64 10.3161 17.2017 11.5169L24.6426 16.9618L28.1159 10.6179C27.1015 9.67412 26.4705 8.54065 26.2952 7.34704C26.12 6.15343 26.4074 4.94782 27.1246 3.86802C27.8419 2.78821 28.9601 1.87775 30.3514 1.24071C31.7427 0.603658 33.351 0.265717 34.9925 0.265503ZM61.239 51.4517H8.74599C7.58582 51.4517 6.47318 51.7887 5.65281 52.3887C4.83245 52.9886 4.37157 53.8023 4.37157 54.6508C4.37157 56.3477 5.29332 57.9752 6.93405 59.1751C8.57477 60.375 10.8001 61.0491 13.1204 61.0491H56.8646C59.0096 61.0495 61.08 60.4736 62.6824 59.4308C64.2849 58.3881 65.3077 56.9511 65.5565 55.393L65.6047 54.8364C65.6392 54.4014 65.5519 53.9659 65.3482 53.5566C65.1444 53.1472 64.8285 52.7725 64.4197 52.4556C64.0109 52.1387 63.518 51.8862 62.971 51.7136C62.4241 51.5409 61.8347 51.4518 61.239 51.4517Z" fill="#C9A949"/>
</svg>
